<svg xmlns="http://www.w3.org/2000/svg" viewBox="0 0 512 512">
  <circle cx="256" cy="256" r="256" fill="#ef7a7a"/>
  <path d="M511 256c0 141-115 256-255 256-98 0-183-55-226-137 45 24 96 38 151 38 174 0 315-141 315-315 0-6 0-12-1-18 10 19 16 40 16 62v114z" fill="#ea5f63"/>
  <path d="M46 214c0-95 94-150 210-150s210 55 210 150v95c0-79-62-143-138-143h-144c-76 0-138 64-138 143v-95z" fill="#766d78"/>
  <path d="M184 166h144c76 0 138 64 138 143 0 0-39-42-100-42H146c-61 0-100 42-100 42 0-79 62-143 138-143z" fill="#f0484a"/>
  <path d="M108 128c40-33 93-52 148-52s108 19 148 52H108z" fill="#f6f6f7"/>
  <rect x="146" y="128" width="10" height="52" fill="#d0d0d1"/>
  <rect x="246" y="128" width="10" height="52" fill="#d0d0d1"/>
  <rect x="356" y="128" width="10" height="52" fill="#d0d0d1"/>
  <path d="M256 310c58-53 153-52 209 3-31 45-82 75-139 79H186c-57-4-108-34-139-79 56-55 151-56 209-3z" fill="#ef5f5f"/>
  <path d="M256 312c58-50 147-49 199 3-30 43-78 72-132 76h-67v-79z" fill="#f16969"/>
  <path d="M210 342h92c20 0 36 16 36 36v22H174v-22c0-20 16-36 36-36z" fill="#f3f3f4"/>
  <rect x="252" y="342" width="10" height="58" fill="#d7d7d8"/>
  <rect x="248" y="267" width="16" height="44" rx="8" fill="#f0484a"/>
</svg>
