<svg xmlns="http://www.w3.org/2000/svg" viewBox="0 0 240 240" fill="none">
  <defs>
    <linearGradient id="probeBody" x1="64" y1="36" x2="176" y2="204" gradientUnits="userSpaceOnUse">
      <stop stop-color="#F8FAFC" />
      <stop offset="1" stop-color="#CBD5E1" />
    </linearGradient>
    <linearGradient id="probeHead" x1="120" y1="24" x2="120" y2="104" gradientUnits="userSpaceOnUse">
      <stop stop-color="#60A5FA" />
      <stop offset="1" stop-color="#2563EB" />
    </linearGradient>
  </defs>
  <path d="M92 42C92 28.7 102.7 18 116 18H124C137.3 18 148 28.7 148 42V62C148 68.6 145.3 74.9 140.5 79.5L138 82L102 82L99.5 79.5C94.7 74.9 92 68.6 92 62V42Z" fill="url(#probeHead)"/>
  <path d="M86 84H154L170 194C171.1 201.6 165.2 208 157.5 208H82.5C74.8 208 68.9 201.6 70 194L86 84Z" fill="url(#probeBody)" stroke="#94A3B8" stroke-width="4"/>
  <path d="M94 106H146" stroke="#E2E8F0" stroke-width="5" stroke-linecap="round"/>
  <path d="M90 146H150" stroke="#D1D5DB" stroke-width="4" stroke-linecap="round"/>
  <path d="M88 172H152" stroke="#D1D5DB" stroke-width="4" stroke-linecap="round"/>
  <path d="M103 82H137V95C137 100 133 104 128 104H112C107 104 103 100 103 95V82Z" fill="#E0F2FE" stroke="#93C5FD" stroke-width="3"/>
</svg>
