<svg xmlns="http://www.w3.org/2000/svg" viewBox="0 0 512 512">
  <g fill="none" fill-rule="evenodd">
    <path d="M96 72c-30 8-56 28-72 54 8 4 16 8 24 12 13-19 32-34 55-40 14-4 22-18 18-32L96 72z" fill="#9CA3AF"/>
    <path d="M416 72c30 8 56 28 72 54-8 4-16 8-24 12-13-19-32-34-55-40-14-4-22-18-18-32l25 6z" fill="#9CA3AF"/>
    <path d="M129 48h36c12 0 22 10 22 22v30c0 12-10 22-22 22h-36V48zm218 0h36c12 0 22 10 22 22v30c0 12-10 22-22 22h-36V48z" fill="#E5E7EB"/>
    <path d="M84 118c-23 10-41 30-50 54l37 136c22 79 93 132 175 132s153-53 175-132l37-136c-9-24-27-44-50-54l-3 15c-3 15-18 25-33 22-8-2-14-6-18-12-16 7-28 20-33 37l-34 124c-16 57-68 95-127 95s-111-38-127-95l-34-124c-5-17-17-30-33-37-4 6-10 10-18 12-15 3-30-7-33-22l-3-15z" fill="#06B6D4"/>
    <path d="M390 250c38 0 69 31 69 69s-31 69-69 69-69-31-69-69 31-69 69-69zm0 27c-23 0-42 19-42 42s19 42 42 42 42-19 42-42-19-42-42-42z" fill="#9CA3AF"/>
    <circle cx="390" cy="319" r="20" fill="#94A3B8"/>
    <path d="M390 388h28v52c0 17-4 34-11 49-8 16-20 31-35 44-28 24-67 39-111 39-44 0-83-15-111-39-15-13-27-28-35-44-7-15-11-32-11-49v-52h28v52c0 13 3 25 8 36 6 12 15 24 27 34 23 20 57 32 94 32 37 0 71-12 94-32 12-10 21-22 27-34 5-11 8-23 8-36v-52z" fill="#06B6D4"/>
  </g>
</svg>
