<svg xmlns="http://www.w3.org/2000/svg" viewBox="0 0 320 200">
  <defs>
    <linearGradient id="armSkinOpenTone" x1="0" y1="0" x2="1" y2="1">
      <stop offset="0%" stop-color="#f7dcc5"/>
      <stop offset="100%" stop-color="#d8a07b"/>
    </linearGradient>
  </defs>
  <rect width="320" height="200" rx="20" fill="#f5efea"/>
  <rect x="36" y="58" width="248" height="84" rx="40" fill="url(#armSkinOpenTone)" stroke="#ba7d58" stroke-width="3"/>
  <ellipse cx="160" cy="76" rx="96" ry="12" fill="#fde8d6" opacity="0.62"/>
  <ellipse cx="160" cy="126" rx="104" ry="14" fill="#b67c55" opacity="0.2"/>

  <path d="M102 100 L141 100" stroke="#fbfaf8" stroke-width="11.5" stroke-linecap="round"/>
  <path d="M173 100 L214 98" stroke="#fbfaf8" stroke-width="11.5" stroke-linecap="round"/>
  <path d="M102 100 L141 100" stroke="#b7b7b7" stroke-width="2.4" stroke-linecap="round"/>
  <path d="M173 100 L214 98" stroke="#b7b7b7" stroke-width="2.4" stroke-linecap="round"/>
  <path d="M108 100 L136 100" stroke="#ebe5dd" stroke-width="4.1" stroke-linecap="round"/>
  <path d="M178 100 L207 98.8" stroke="#ebe5dd" stroke-width="4.1" stroke-linecap="round"/>

  <path d="M142 100 L160 84 L176 118 L194 98" stroke="#6f1515" stroke-width="4.1" stroke-linecap="round" fill="none"/>
  <path d="M149 90 L187 112" stroke="#7f1d1d" stroke-width="10" stroke-linecap="round" opacity="0.8"/>
  <path d="M146 94 L184 116" stroke="#a61d1d" stroke-width="6" stroke-linecap="round" opacity="0.95"/>
  <circle cx="167" cy="102" r="8" fill="#991b1b"/>
  <circle cx="183" cy="94" r="5" fill="#7f1d1d"/>
  <ellipse cx="170" cy="106" rx="34" ry="16" fill="#7f1d1d" opacity="0.18"/>
</svg>
