<svg xmlns="http://www.w3.org/2000/svg" viewBox="0 0 320 200">
  <defs>
    <linearGradient id="armSkinTone" x1="0" y1="0" x2="1" y2="1">
      <stop offset="0%" stop-color="#f6d8bf"/>
      <stop offset="100%" stop-color="#d9a77f"/>
    </linearGradient>
    <linearGradient id="armShadowTone" x1="0" y1="0" x2="0" y2="1">
      <stop offset="0%" stop-color="#fbe4cf" stop-opacity="0.9"/>
      <stop offset="100%" stop-color="#c98f67" stop-opacity="0.95"/>
    </linearGradient>
    <radialGradient id="bruiseArm" cx="50%" cy="50%" r="55%">
      <stop offset="0%" stop-color="#7f1d1d" stop-opacity="0.45"/>
      <stop offset="60%" stop-color="#7f1d1d" stop-opacity="0.22"/>
      <stop offset="100%" stop-color="#7f1d1d" stop-opacity="0"/>
    </radialGradient>
  </defs>
  <rect width="320" height="200" rx="20" fill="#f5efe9"/>
  <path d="M36 100 C42 76, 62 60, 92 60 H236 C266 60, 284 76, 284 100 C284 124, 266 140, 236 140 H92 C62 140, 42 124, 36 100 Z" fill="url(#armSkinTone)" stroke="#ba7d58" stroke-width="3"/>
  <ellipse cx="160" cy="76" rx="96" ry="12" fill="#fde8d6" opacity="0.6"/>
  <ellipse cx="160" cy="126" rx="104" ry="14" fill="#b67c55" opacity="0.2"/>
  <path d="M86 101 C112 99, 132 98, 146 100 C154 101, 162 95, 171 92 C178 90, 186 93, 193 100 C205 110, 220 108, 236 102" fill="none" stroke="#8b5e3c" stroke-width="2.6" stroke-linecap="round"/>
  <ellipse cx="173" cy="101" rx="42" ry="20" fill="url(#bruiseArm)"/>
  <ellipse cx="170" cy="92" rx="18" ry="9" fill="#fca5a5" opacity="0.38"/>
  <path d="M150 98 C158 92, 166 90, 173 92 C182 95, 188 102, 195 107" fill="none" stroke="#6b1a1a" stroke-width="1.8" stroke-linecap="round" opacity="0.7"/>
  <path d="M158 87 C166 84, 176 85, 183 90" fill="none" stroke="#7f1d1d" stroke-width="1.5" stroke-linecap="round" opacity="0.65"/>
  <path d="M36 100 C42 76, 62 60, 92 60 H236 C266 60, 284 76, 284 100 C284 124, 266 140, 236 140 H92 C62 140, 42 124, 36 100 Z" fill="url(#armShadowTone)" opacity="0.26"/>
</svg>
