<svg xmlns="http://www.w3.org/2000/svg" viewBox="0 0 240 240">
  <defs>
    <linearGradient id="steelB" x1="0" y1="0" x2="1" y2="1">
      <stop offset="0%" stop-color="#f8fafc"/>
      <stop offset="40%" stop-color="#94a3b8"/>
      <stop offset="100%" stop-color="#cbd5e1"/>
    </linearGradient>
    <linearGradient id="steelDarkB" x1="0" y1="0" x2="1" y2="0">
      <stop offset="0%" stop-color="#334155"/>
      <stop offset="50%" stop-color="#94a3b8"/>
      <stop offset="100%" stop-color="#1e293b"/>
    </linearGradient>
  </defs>
  <rect width="240" height="240" rx="30" fill="#f8fafc"/>
  <path d="M48 184 L104 122" stroke="url(#steelB)" stroke-width="10" stroke-linecap="round"/>
  <path d="M192 184 L136 122" stroke="url(#steelB)" stroke-width="10" stroke-linecap="round"/>
  <circle cx="48" cy="184" r="13" fill="none" stroke="#64748b" stroke-width="7"/>
  <circle cx="192" cy="184" r="13" fill="none" stroke="#64748b" stroke-width="7"/>
  <path d="M104 122 L136 122 L176 86" stroke="url(#steelDarkB)" stroke-width="8" fill="none" stroke-linecap="round"/>
  <path d="M176 86 L186 78" stroke="#0f172a" stroke-width="6" stroke-linecap="round"/>
  <path d="M186 78 Q194 72 202 78" stroke="#991b1b" stroke-width="5" fill="none"/>
  <path d="M112 130 C118 136, 124 136, 130 130" stroke="#1e293b" stroke-width="3" fill="none"/>
  <path d="M108 124 L118 112" stroke="#334155" stroke-width="3" stroke-linecap="round"/>
  <path d="M132 124 L122 112" stroke="#334155" stroke-width="3" stroke-linecap="round"/>
  <path d="M92 136 L100 132" stroke="#334155" stroke-width="3" stroke-linecap="round"/>
  <path d="M148 136 L140 132" stroke="#334155" stroke-width="3" stroke-linecap="round"/>
</svg>
