<svg xmlns="http://www.w3.org/2000/svg" viewBox="0 0 240 240">
  <defs>
    <linearGradient id="steelA" x1="0" y1="0" x2="1" y2="1">
      <stop offset="0%" stop-color="#f8fafc"/>
      <stop offset="45%" stop-color="#94a3b8"/>
      <stop offset="100%" stop-color="#e2e8f0"/>
    </linearGradient>
    <linearGradient id="steelEdgeA" x1="0" y1="0" x2="1" y2="0">
      <stop offset="0%" stop-color="#64748b"/>
      <stop offset="50%" stop-color="#cbd5e1"/>
      <stop offset="100%" stop-color="#475569"/>
    </linearGradient>
  </defs>
  <rect width="240" height="240" rx="30" fill="#eef2ff"/>
  <path d="M48 188 L107 78" stroke="url(#steelA)" stroke-width="10" stroke-linecap="round"/>
  <path d="M192 188 L133 78" stroke="url(#steelA)" stroke-width="10" stroke-linecap="round"/>
  <path d="M107 78 L121 40 L133 78" fill="none" stroke="url(#steelEdgeA)" stroke-width="7" stroke-linecap="round"/>
  <path d="M117 58 L121 44 L125 58" fill="none" stroke="#0f172a" stroke-width="3" stroke-linecap="round"/>
  <path d="M111 82 L121 68 L129 82" fill="none" stroke="#334155" stroke-width="3" stroke-linecap="round"/>
  <path d="M108 78 L96 58" stroke="#334155" stroke-width="3" stroke-linecap="round"/>
  <path d="M133 78 L145 58" stroke="#334155" stroke-width="3" stroke-linecap="round"/>
  <circle cx="50" cy="188" r="10" fill="#64748b"/>
  <circle cx="190" cy="188" r="10" fill="#64748b"/>
  <path d="M112 84 C116 90, 124 90, 128 84" stroke="#1e293b" stroke-width="3" fill="none"/>
  <path d="M97 57 L105 42" stroke="#1e293b" stroke-width="3" stroke-linecap="round"/>
  <path d="M145 57 L137 42" stroke="#1e293b" stroke-width="3" stroke-linecap="round"/>
</svg>
