<svg xmlns="http://www.w3.org/2000/svg" viewBox="0 0 300 160">
  <defs>
    <linearGradient id="skinArm" x1="0" y1="0" x2="1" y2="1">
      <stop offset="0%" stop-color="#dbeafe"/>
      <stop offset="100%" stop-color="#93c5fd"/>
    </linearGradient>
    <radialGradient id="bruiseArm" cx="50%" cy="50%" r="50%">
      <stop offset="0%" stop-color="#7c3aed" stop-opacity="0.25"/>
      <stop offset="100%" stop-color="#7c3aed" stop-opacity="0"/>
    </radialGradient>
  </defs>
  <rect width="300" height="160" rx="16" fill="#eff6ff"/>
  <rect x="36" y="42" width="228" height="76" rx="34" fill="url(#skinArm)" stroke="#60a5fa" stroke-width="4"/>
  <ellipse cx="160" cy="78" rx="42" ry="20" fill="url(#bruiseArm)"/>
  <path d="M88 82 C110 66, 130 96, 154 80 C173 68, 192 92, 214 78 C220 74, 228 75, 234 78" fill="none" stroke="#7f1d1d" stroke-width="8" stroke-linecap="round"/>
  <path d="M90 82 C112 70, 132 98, 154 82 C172 72, 192 94, 212 80" fill="none" stroke="#b91c1c" stroke-width="3" stroke-linecap="round" opacity="0.8"/>
  <circle cx="105" cy="78" r="5" fill="#7f1d1d"/>
  <circle cx="145" cy="88" r="3.5" fill="#991b1b"/>
  <circle cx="184" cy="76" r="4.5" fill="#7f1d1d"/>
  <circle cx="220" cy="79" r="3.5" fill="#991b1b"/>
</svg>
