<svg width="180" height="300" viewBox="0 0 180 300" fill="none" xmlns="http://www.w3.org/2000/svg">
  <defs>
    <linearGradient id="amberBody" x1="90" y1="36" x2="90" y2="266" gradientUnits="userSpaceOnUse">
      <stop offset="0" stop-color="#D08A2D"/>
      <stop offset="1" stop-color="#7F3C11"/>
    </linearGradient>
    <linearGradient id="amberGlass" x1="54" y1="72" x2="126" y2="242" gradientUnits="userSpaceOnUse">
      <stop offset="0" stop-color="#F6C77E" stop-opacity="0.78"/>
      <stop offset="1" stop-color="#7D3A12" stop-opacity="0.32"/>
    </linearGradient>
  </defs>
  <rect x="80" y="8" width="20" height="58" rx="8" fill="#C4761D" stroke="#5F2C0D" stroke-width="4"/>
  <rect x="62" y="56" width="56" height="24" rx="8" fill="#D89137" stroke="#5F2C0D" stroke-width="4"/>
  <path d="M34 92C34 70 52 52 74 52H106C128 52 146 70 146 92V194C146 229 123 259 90 269C57 259 34 229 34 194V92Z" fill="url(#amberBody)" stroke="#5B2A0D" stroke-width="5"/>
  <path d="M46 98C46 82 58 70 74 70H106C122 70 134 82 134 98V192C134 218 117 241 90 250C63 241 46 218 46 192V98Z" fill="url(#amberGlass)"/>
  <path d="M57 132C57 126 62 121 67 121H113C118 121 123 126 123 132V204C123 210 118 215 113 215H67C62 215 57 210 57 204V132Z" fill="#B26124" opacity="0.26"/>
  <ellipse cx="90" cy="112" rx="35" ry="6" fill="#E9B267" opacity="0.58"/>
  <path d="M56 110C64 114 73 116 90 116C107 116 116 114 124 110" stroke="#F2D6A6" stroke-width="2.6" stroke-linecap="round" opacity="0.72"/>
  <path d="M66 84C58 95 54 108 54 122V197C54 214 61 231 72 241" stroke="#FFE8C6" stroke-width="7" stroke-linecap="round" opacity="0.34"/>
  <path d="M97 78C108 92 113 111 113 142" stroke="#FFE5BF" stroke-width="5" stroke-linecap="round" opacity="0.2"/>
  <path d="M68 258H112L106 285H74L68 258Z" fill="#B46223" stroke="#5B2A0D" stroke-width="5"/>
  <rect x="70" y="270" width="40" height="24" rx="8" fill="#C8772E" stroke="#5B2A0D" stroke-width="4"/>
</svg>
